<svg xmlns="http://www.w3.org/2000/svg" width="500" height="500" viewBox="0 0 500 500" role="img" aria-labelledby="title-diriyah">
  <title id="title-diriyah">Diriyah Formula E circuit outline</title>
  <!-- Simplified from https://results.formulae.fia.com/api/getfile/formula-e/files/results/09_Season%2010%20-%202023-24/02_R02%20Diriyah/Event%20Information/R02_DRH_Circuit%20Map%20v2.pdf -->
  <path d="M432.6 318.1 Q460.0 320.1 451.6 313.7 Q443.2 307.3 446.8 283.7 Q450.3 260.1 442.5 259.7 Q434.7 259.4 444.9 251.7 Q455.1 243.9 449.2 236.6 Q443.2 229.3 437.9 242.4 Q432.6 255.5 425.4 249.2 Q418.3 243.0 413.9 209.3 Q409.4 175.7 391.0 156.5 Q372.6 137.3 346.1 150.9 Q319.6 164.4 312.4 155.3 Q305.3 146.1 308.5 156.5 Q311.7 166.9 298.7 168.5 Q285.8 170.2 283.2 184.4 Q280.6 198.5 273.8 190.0 Q266.9 181.5 228.2 192.6 Q189.5 203.7 186.2 196.7 Q182.8 189.7 183.6 197.5 Q184.4 205.2 120.6 221.1 Q56.8 236.9 48.4 258.4 Q40.0 279.8 100.3 318.2 Q160.6 356.6 187.6 340.6 Q214.5 324.6 258.4 343.7 Q302.2 362.7 326.0 345.6 Q349.7 328.6 364.1 334.4 Q378.4 340.2 391.8 328.1 Q405.2 316.1 432.6 318.1 Z" fill="none" stroke="#111318" stroke-width="12" stroke-linecap="round" stroke-linejoin="round"/>
</svg>
